<svg xmlns="http://www.w3.org/2000/svg" viewBox="0 0 24 24" role="img" aria-label="YouTube">
  <rect width="24" height="24" rx="6" fill="#ffffff"/>
  <path fill="#050810" d="M21.58 7.2a2.74 2.74 0 0 0-1.93-1.94C17.94 4.8 12 4.8 12 4.8s-5.94 0-7.65.46A2.74 2.74 0 0 0 2.42 7.2 28.42 28.42 0 0 0 1.96 12c0 1.68.15 3.34.46 4.8a2.74 2.74 0 0 0 1.93 1.94c1.71.46 7.65.46 7.65.46s5.94 0 7.65-.46a2.74 2.74 0 0 0 1.93-1.94c.31-1.46.46-3.12.46-4.8s-.15-3.34-.46-4.8ZM9.96 15.2V8.8L15.48 12l-5.52 3.2Z"/>
</svg>
