<svg width="984" height="200" viewBox="0 0 984 200" fill="none" xmlns="http://www.w3.org/2000/svg">
<g clip-path="url(#clip0_67_4)">
<rect width="984" height="200" fill="black"/>
<path d="M232.531 86.5336H-11V100.149C75.6618 101.546 255.896 103.501 283.54 100.149C311.184 96.7978 386.108 65.2369 420.115 49.8754C505.68 7.9803 617.024 44.2891 662 70.8227C563.271 -17.1569 413.533 26.4838 351.005 59.3015C335.208 72.708 265.44 85.1371 232.531 86.5336Z" fill="#ED0871" stroke="white" stroke-width="2"/>
<path d="M754.469 115.466H998V101.851C911.338 100.454 731.104 98.499 703.46 101.851C675.816 105.202 600.892 136.763 566.885 152.125C481.32 194.02 369.976 157.711 325 131.177C423.729 219.157 573.467 175.516 635.995 142.698C651.792 129.292 721.56 116.863 754.469 115.466Z" fill="#ED0871" stroke="white" stroke-width="2"/>
</g>
<defs>
<clipPath id="clip0_67_4">
<rect width="984" height="200" fill="white"/>
</clipPath>
</defs>
</svg>
