<svg width="400" height="107" viewBox="0 0 400 107" fill="none" xmlns="http://www.w3.org/2000/svg">
<g clip-path="url(#clip0_3003_4)">
<rect width="400" height="107" fill="white"/>
<path d="M399.5 1H380L399.5 34V1Z" fill="#0072FE"/>
<rect width="400" height="108" fill="#D2814E"/>
<path d="M196.904 60.7453L154 -1H240.38L285 64.3774L254.109 109H164.297L196.904 60.7453Z" fill="#3BA32E"/>
<path d="M40 61L0 1V107.5H11L40 61Z" fill="#3BA32E"/>
<path d="M398.5 108V96L390 108H398.5Z" fill="#0072FE"/>
<path d="M125.947 60.3779L84 -4H144.652L190 60.3779L161.658 106H93.6364L125.947 60.3779Z" fill="#3BA32E"/>
<path d="M290.947 65.3779L249 1H309.652L355 65.3779L326.658 111H258.636L290.947 65.3779Z" fill="#3BA32E"/>
</g>
<defs>
<clipPath id="clip0_3003_4">
<rect width="400" height="107" fill="white"/>
</clipPath>
</defs>
</svg>
